# MagicaVoxel @ Ephtracy

# material
mtllib Cat1-00.mtl
usemtl palette

# normals
vn -1 0 0
vn 1 0 0
vn 0 0 1
vn 0 0 -1
vn 0 -1 0
vn 0 1 0

# texcoords
vt 0.970703 0.5
vt 0.974609 0.5
vt 0.982422 0.5
vt 0.986328 0.5
vt 0.990234 0.5
vt 0.994141 0.5

# verts
v -4 5 6
v -4 5 4
v -4 5 3
v -4 6 6
v -4 6 5
v -4 6 4
v -4 6 3
v -4 7 6
v -4 7 5
v -4 8 6
v -4 8 5
v -4 8 4
v -4 8 3
v -4 9 5
v -4 9 4
v -4 12 5
v -4 12 4
v -3 0 5
v -3 0 3
v -3 0 -1
v -3 0 -3
v -3 1 5
v -3 1 4
v -3 1 -1
v -3 1 -2
v -3 2 4
v -3 2 3
v -3 2 -2
v -3 2 -3
v -3 3 5
v -3 3 4
v -3 3 3
v -3 3 -2
v -3 3 -3
v -3 3 -4
v -3 4 6
v -3 4 5
v -3 5 6
v -3 5 5
v -3 5 4
v -3 5 3
v -3 5 2
v -3 5 1
v -3 5 -0
v -3 5 -1
v -3 5 -2
v -3 5 -3
v -3 6 3
v -3 8 6
v -3 8 5
v -3 8 4
v -3 8 3
v -3 8 2
v -3 8 1
v -3 8 -0
v -3 8 -1
v -3 8 -2
v -3 8 -3
v -3 8 -4
v -3 9 5
v -3 9 4
v -3 10 6
v -3 10 5
v -3 10 4
v -3 10 3
v -2 5 7
v -2 5 6
v -2 6 6
v -2 7 7
v -2 7 6
v -1 7 -4
v -1 7 -5
v -1 8 -4
v -1 8 -5
v -1 9 -4
v -1 9 -5
v -1 9 -6
v -1 10 -4
v -1 10 -5
v -1 10 -6
v -1 11 -5
v -1 11 -6
v -1 12 -5
v -1 12 -6
v -1 15 -5
v -1 15 -6
v 1 0 5
v 1 0 3
v 1 0 -1
v 1 0 -3
v 1 1 5
v 1 1 4
v 1 1 -1
v 1 1 -2
v 1 2 4
v 1 2 3
v 1 2 -2
v 1 2 -3
v 1 3 4
v 1 3 3
v 1 3 -2
v 1 3 -3
v 1 10 5
v 1 10 4
v 1 11 5
v 1 11 4
v 2 11 5
v 2 11 4
v 2 12 5
v 2 12 4
v -2 11 5
v -2 11 4
v -2 12 5
v -2 12 4
v -1 0 5
v -1 0 3
v -1 0 -1
v -1 0 -3
v -1 1 5
v -1 1 4
v -1 1 -1
v -1 1 -2
v -1 2 4
v -1 2 3
v -1 2 -2
v -1 2 -3
v -1 3 4
v -1 3 3
v -1 3 -2
v -1 3 -3
v -1 10 5
v -1 10 4
v -1 11 5
v -1 11 4
v 1 7 -4
v 1 7 -5
v 1 8 -4
v 1 8 -5
v 1 9 -4
v 1 9 -5
v 1 9 -6
v 1 10 -4
v 1 10 -5
v 1 10 -6
v 1 11 -5
v 1 11 -6
v 1 12 -5
v 1 12 -6
v 1 15 -5
v 1 15 -6
v 2 5 7
v 2 5 6
v 2 6 6
v 2 7 7
v 2 7 6
v 3 0 5
v 3 0 3
v 3 0 -1
v 3 0 -3
v 3 1 5
v 3 1 4
v 3 1 -1
v 3 1 -2
v 3 2 4
v 3 2 3
v 3 2 -2
v 3 2 -3
v 3 3 5
v 3 3 4
v 3 3 3
v 3 3 -2
v 3 3 -3
v 3 3 -4
v 3 4 6
v 3 4 5
v 3 5 6
v 3 5 5
v 3 5 4
v 3 5 3
v 3 5 2
v 3 5 1
v 3 5 -0
v 3 5 -1
v 3 5 -2
v 3 5 -3
v 3 6 3
v 3 8 6
v 3 8 5
v 3 8 4
v 3 8 3
v 3 8 2
v 3 8 1
v 3 8 -0
v 3 8 -1
v 3 8 -2
v 3 8 -3
v 3 8 -4
v 3 9 5
v 3 9 4
v 3 10 6
v 3 10 5
v 3 10 4
v 3 10 3
v 4 5 6
v 4 5 4
v 4 5 3
v 4 6 6
v 4 6 5
v 4 6 4
v 4 6 3
v 4 7 6
v 4 7 5
v 4 8 6
v 4 8 5
v 4 8 4
v 4 8 3
v 4 9 5
v 4 9 4
v 4 12 5
v 4 12 4
v -2 5 7
v -2 7 7
v -1 6 7
v -1 7 7
v 1 6 7
v 1 7 7
v 2 5 7
v 2 7 7
v -4 5 6
v -4 6 6
v -4 7 6
v -4 8 6
v -3 4 6
v -3 5 6
v -3 8 6
v -3 10 6
v -2 4 6
v -2 5 6
v -2 6 6
v -2 7 6
v -2 8 6
v -2 9 6
v -1 7 6
v -1 8 6
v -1 9 6
v 1 7 6
v 1 8 6
v 1 9 6
v 2 4 6
v 2 5 6
v 2 6 6
v 2 7 6
v 2 8 6
v 2 9 6
v 3 4 6
v 3 5 6
v 3 8 6
v 3 10 6
v 4 5 6
v 4 6 6
v 4 7 6
v 4 8 6
v -4 8 5
v -4 9 5
v -4 12 5
v -3 0 5
v -3 1 5
v -3 3 5
v -3 4 5
v -3 8 5
v -3 9 5
v -3 10 5
v -3 11 5
v -2 4 5
v -2 10 5
v -2 11 5
v -2 12 5
v -1 0 5
v -1 1 5
v -1 10 5
v -1 11 5
v 1 0 5
v 1 1 5
v 1 10 5
v 1 11 5
v 2 4 5
v 2 10 5
v 2 11 5
v 2 12 5
v 3 0 5
v 3 1 5
v 3 3 5
v 3 4 5
v 3 8 5
v 3 9 5
v 3 10 5
v 3 11 5
v 4 8 5
v 4 9 5
v 4 12 5
v -3 1 4
v -3 2 4
v -3 3 4
v -1 1 4
v -1 2 4
v -1 3 4
v 1 1 4
v 1 2 4
v 1 3 4
v 3 1 4
v 3 2 4
v 3 3 4
v -3 0 -1
v -3 1 -1
v -1 0 -1
v -1 1 -1
v 1 0 -1
v 1 1 -1
v 3 0 -1
v 3 1 -1
v -3 1 -2
v -3 2 -2
v -3 3 -2
v -1 1 -2
v -1 2 -2
v -1 3 -2
v 1 1 -2
v 1 2 -2
v 1 3 -2
v 3 1 -2
v 3 2 -2
v 3 3 -2
v -1 8 -4
v -1 9 -4
v -1 10 -4
v 1 8 -4
v 1 9 -4
v 1 10 -4
v -1 10 -5
v -1 11 -5
v -1 12 -5
v -1 15 -5
v 1 10 -5
v 1 11 -5
v 1 12 -5
v 1 15 -5
v -4 8 4
v -4 9 4
v -4 12 4
v -3 8 4
v -3 9 4
v -3 10 4
v -3 11 4
v -2 10 4
v -2 11 4
v -2 12 4
v -1 10 4
v -1 11 4
v 1 10 4
v 1 11 4
v 2 10 4
v 2 11 4
v 2 12 4
v 3 8 4
v 3 9 4
v 3 10 4
v 3 11 4
v 4 8 4
v 4 9 4
v 4 12 4
v -4 5 3
v -4 6 3
v -4 8 3
v -3 0 3
v -3 2 3
v -3 3 3
v -3 5 3
v -3 6 3
v -3 8 3
v -3 10 3
v -1 0 3
v -1 2 3
v -1 3 3
v 1 0 3
v 1 2 3
v 1 3 3
v 3 0 3
v 3 2 3
v 3 3 3
v 3 5 3
v 3 6 3
v 3 8 3
v 3 10 3
v 4 5 3
v 4 6 3
v 4 8 3
v -3 0 -3
v -3 2 -3
v -3 3 -3
v -1 0 -3
v -1 2 -3
v -1 3 -3
v 1 0 -3
v 1 2 -3
v 1 3 -3
v 3 0 -3
v 3 2 -3
v 3 3 -3
v -3 3 -4
v -3 8 -4
v -1 7 -4
v -1 8 -4
v 1 7 -4
v 1 8 -4
v 3 3 -4
v 3 8 -4
v -1 7 -5
v -1 8 -5
v -1 9 -5
v 1 7 -5
v 1 8 -5
v 1 9 -5
v -1 9 -6
v -1 10 -6
v -1 11 -6
v -1 12 -6
v -1 15 -6
v 1 9 -6
v 1 10 -6
v 1 11 -6
v 1 12 -6
v 1 15 -6
v -3 0 5
v -1 0 5
v 1 0 5
v 3 0 5
v -3 0 3
v -1 0 3
v 1 0 3
v 3 0 3
v -3 0 -1
v -1 0 -1
v 1 0 -1
v 3 0 -1
v -3 0 -3
v -1 0 -3
v 1 0 -3
v 3 0 -3
v -3 3 5
v 3 3 5
v -3 3 4
v -1 3 4
v 1 3 4
v 3 3 4
v -3 3 3
v -1 3 3
v 1 3 3
v 3 3 3
v -3 3 -2
v -1 3 -2
v 1 3 -2
v 3 3 -2
v -3 3 -3
v -1 3 -3
v 1 3 -3
v 3 3 -3
v -3 3 -4
v 3 3 -4
v -3 4 6
v -2 4 6
v 2 4 6
v 3 4 6
v -3 4 5
v -2 4 5
v 2 4 5
v 3 4 5
v -2 5 7
v 2 5 7
v -4 5 6
v -3 5 6
v -2 5 6
v 2 5 6
v 3 5 6
v 4 5 6
v -3 5 5
v 3 5 5
v -4 5 4
v -3 5 4
v 3 5 4
v 4 5 4
v -4 5 3
v -3 5 3
v 3 5 3
v 4 5 3
v -1 7 -4
v 1 7 -4
v -1 7 -5
v 1 7 -5
v -1 9 -5
v 1 9 -5
v -1 9 -6
v 1 9 -6
v -3 1 5
v -1 1 5
v 1 1 5
v 3 1 5
v -3 1 4
v -1 1 4
v 1 1 4
v 3 1 4
v -3 1 -1
v -1 1 -1
v 1 1 -1
v 3 1 -1
v -3 1 -2
v -1 1 -2
v 1 1 -2
v 3 1 -2
v -2 7 7
v -1 7 7
v 1 7 7
v 2 7 7
v -2 7 6
v -1 7 6
v 1 7 6
v 2 7 6
v -4 8 6
v -3 8 6
v 3 8 6
v 4 8 6
v -4 8 5
v -3 8 5
v 3 8 5
v 4 8 5
v -4 8 4
v -3 8 4
v 3 8 4
v 4 8 4
v -4 8 3
v -3 8 3
v 3 8 3
v 4 8 3
v -3 8 2
v 3 8 2
v -3 8 1
v 3 8 1
v -3 8 -0
v 3 8 -0
v -3 8 -1
v 3 8 -1
v -3 8 -2
v 3 8 -2
v -3 8 -3
v 3 8 -3
v -3 8 -4
v -1 8 -4
v 1 8 -4
v 3 8 -4
v -3 10 6
v 3 10 6
v -3 10 5
v -2 10 5
v -1 10 5
v 1 10 5
v 2 10 5
v 3 10 5
v -3 10 4
v -2 10 4
v -1 10 4
v 1 10 4
v 2 10 4
v 3 10 4
v -3 10 3
v 3 10 3
v -1 10 -4
v 1 10 -4
v -1 10 -5
v 1 10 -5
v -2 11 5
v -1 11 5
v 1 11 5
v 2 11 5
v -2 11 4
v -1 11 4
v 1 11 4
v 2 11 4
v -4 12 5
v -2 12 5
v 2 12 5
v 4 12 5
v -4 12 4
v -2 12 4
v 2 12 4
v 4 12 4
v -1 15 -5
v 1 15 -5
v -1 15 -6
v 1 15 -6

# faces
f 4/1/1 2/1/1 1/1/1
f 5/1/1 2/1/1 4/1/1
f 6/5/1 3/5/1 2/5/1
f 6/1/1 2/1/1 5/1/1
f 7/5/1 3/5/1 6/5/1
f 8/5/1 5/5/1 4/5/1
f 9/1/1 6/1/1 5/1/1
f 9/5/1 5/5/1 8/5/1
f 9/1/1 7/1/1 6/1/1
f 10/1/1 9/1/1 8/1/1
f 11/1/1 7/1/1 9/1/1
f 11/1/1 9/1/1 10/1/1
f 12/1/1 7/1/1 11/1/1
f 13/1/1 7/1/1 12/1/1
f 14/1/1 12/1/1 11/1/1
f 15/1/1 12/1/1 14/1/1
f 16/5/1 15/5/1 14/5/1
f 17/5/1 15/5/1 16/5/1
f 22/5/1 19/5/1 18/5/1
f 23/5/1 19/5/1 22/5/1
f 24/5/1 21/5/1 20/5/1
f 25/5/1 21/5/1 24/5/1
f 26/5/1 19/5/1 23/5/1
f 27/5/1 19/5/1 26/5/1
f 28/5/1 21/5/1 25/5/1
f 29/5/1 21/5/1 28/5/1
f 31/1/1 27/1/1 26/1/1
f 32/1/1 27/1/1 31/1/1
f 33/1/1 29/1/1 28/1/1
f 34/1/1 29/1/1 33/1/1
f 37/1/1 34/1/1 33/1/1
f 37/1/1 35/1/1 34/1/1
f 37/1/1 33/1/1 32/1/1
f 37/1/1 32/1/1 31/1/1
f 37/1/1 31/1/1 30/1/1
f 38/5/1 37/5/1 36/5/1
f 39/1/1 35/1/1 37/1/1
f 39/5/1 37/5/1 38/5/1
f 40/1/1 35/1/1 39/1/1
f 41/1/1 35/1/1 40/1/1
f 42/1/1 35/1/1 41/1/1
f 43/1/1 35/1/1 42/1/1
f 44/1/1 35/1/1 43/1/1
f 45/1/1 35/1/1 44/1/1
f 46/1/1 35/1/1 45/1/1
f 47/1/1 35/1/1 46/1/1
f 48/1/1 42/1/1 41/1/1
f 52/1/1 42/1/1 48/1/1
f 53/5/1 43/5/1 42/5/1
f 53/1/1 42/1/1 52/1/1
f 54/1/1 44/1/1 43/1/1
f 54/5/1 43/5/1 53/5/1
f 55/5/1 45/5/1 44/5/1
f 55/1/1 44/1/1 54/1/1
f 56/1/1 46/1/1 45/1/1
f 56/5/1 45/5/1 55/5/1
f 57/5/1 47/5/1 46/5/1
f 57/1/1 46/1/1 56/1/1
f 58/1/1 35/1/1 47/1/1
f 58/5/1 47/5/1 57/5/1
f 59/1/1 35/1/1 58/1/1
f 60/1/1 50/1/1 49/1/1
f 61/1/1 52/1/1 51/1/1
f 62/1/1 60/1/1 49/1/1
f 63/1/1 60/1/1 62/1/1
f 64/1/1 52/1/1 61/1/1
f 65/1/1 52/1/1 64/1/1
f 68/4/1 67/4/1 66/4/1
f 69/4/1 68/4/1 66/4/1
f 70/4/1 68/4/1 69/4/1
f 73/1/1 72/1/1 71/1/1
f 74/1/1 72/1/1 73/1/1
f 75/5/1 74/5/1 73/5/1
f 76/5/1 74/5/1 75/5/1
f 78/1/1 76/1/1 75/1/1
f 78/1/1 77/1/1 76/1/1
f 79/1/1 77/1/1 78/1/1
f 80/1/1 77/1/1 79/1/1
f 81/5/1 80/5/1 79/5/1
f 82/5/1 80/5/1 81/5/1
f 83/1/1 82/1/1 81/1/1
f 84/1/1 82/1/1 83/1/1
f 85/5/1 84/5/1 83/5/1
f 86/5/1 84/5/1 85/5/1
f 91/5/1 88/5/1 87/5/1
f 92/5/1 88/5/1 91/5/1
f 93/5/1 90/5/1 89/5/1
f 94/5/1 90/5/1 93/5/1
f 95/5/1 88/5/1 92/5/1
f 96/5/1 88/5/1 95/5/1
f 97/5/1 90/5/1 94/5/1
f 98/5/1 90/5/1 97/5/1
f 99/1/1 96/1/1 95/1/1
f 100/1/1 96/1/1 99/1/1
f 101/1/1 98/1/1 97/1/1
f 102/1/1 98/1/1 101/1/1
f 105/5/1 104/5/1 103/5/1
f 106/5/1 104/5/1 105/5/1
f 109/5/1 108/5/1 107/5/1
f 110/5/1 108/5/1 109/5/1
f 111/5/2 112/5/2 113/5/2
f 113/5/2 112/5/2 114/5/2
f 115/5/2 116/5/2 119/5/2
f 119/5/2 116/5/2 120/5/2
f 117/5/2 118/5/2 121/5/2
f 121/5/2 118/5/2 122/5/2
f 120/5/2 116/5/2 123/5/2
f 123/5/2 116/5/2 124/5/2
f 122/5/2 118/5/2 125/5/2
f 125/5/2 118/5/2 126/5/2
f 123/1/2 124/1/2 127/1/2
f 127/1/2 124/1/2 128/1/2
f 125/1/2 126/1/2 129/1/2
f 129/1/2 126/1/2 130/1/2
f 131/5/2 132/5/2 133/5/2
f 133/5/2 132/5/2 134/5/2
f 135/1/2 136/1/2 137/1/2
f 137/1/2 136/1/2 138/1/2
f 137/5/2 138/5/2 139/5/2
f 139/5/2 138/5/2 140/5/2
f 139/1/2 140/1/2 142/1/2
f 140/1/2 141/1/2 142/1/2
f 142/1/2 141/1/2 143/1/2
f 143/1/2 141/1/2 144/1/2
f 143/5/2 144/5/2 145/5/2
f 145/5/2 144/5/2 146/5/2
f 145/1/2 146/1/2 147/1/2
f 147/1/2 146/1/2 148/1/2
f 147/5/2 148/5/2 149/5/2
f 149/5/2 148/5/2 150/5/2
f 151/4/2 152/4/2 153/4/2
f 151/4/2 153/4/2 154/4/2
f 154/4/2 153/4/2 155/4/2
f 156/5/2 157/5/2 160/5/2
f 160/5/2 157/5/2 161/5/2
f 158/5/2 159/5/2 162/5/2
f 162/5/2 159/5/2 163/5/2
f 161/5/2 157/5/2 164/5/2
f 164/5/2 157/5/2 165/5/2
f 163/5/2 159/5/2 166/5/2
f 166/5/2 159/5/2 167/5/2
f 164/1/2 165/1/2 169/1/2
f 169/1/2 165/1/2 170/1/2
f 166/1/2 167/1/2 171/1/2
f 171/1/2 167/1/2 172/1/2
f 171/1/2 172/1/2 175/1/2
f 172/1/2 173/1/2 175/1/2
f 170/1/2 171/1/2 175/1/2
f 169/1/2 170/1/2 175/1/2
f 168/1/2 169/1/2 175/1/2
f 174/5/2 175/5/2 176/5/2
f 175/1/2 173/1/2 177/1/2
f 176/5/2 175/5/2 177/5/2
f 177/1/2 173/1/2 178/1/2
f 178/1/2 173/1/2 179/1/2
f 179/1/2 173/1/2 180/1/2
f 180/1/2 173/1/2 181/1/2
f 181/1/2 173/1/2 182/1/2
f 182/1/2 173/1/2 183/1/2
f 183/1/2 173/1/2 184/1/2
f 184/1/2 173/1/2 185/1/2
f 179/1/2 180/1/2 186/1/2
f 186/1/2 180/1/2 190/1/2
f 180/5/2 181/5/2 191/5/2
f 190/1/2 180/1/2 191/1/2
f 181/1/2 182/1/2 192/1/2
f 191/5/2 181/5/2 192/5/2
f 182/5/2 183/5/2 193/5/2
f 192/1/2 182/1/2 193/1/2
f 183/1/2 184/1/2 194/1/2
f 193/5/2 183/5/2 194/5/2
f 184/5/2 185/5/2 195/5/2
f 194/1/2 184/1/2 195/1/2
f 185/1/2 173/1/2 196/1/2
f 195/5/2 185/5/2 196/5/2
f 196/1/2 173/1/2 197/1/2
f 187/1/2 188/1/2 198/1/2
f 189/1/2 190/1/2 199/1/2
f 187/1/2 198/1/2 200/1/2
f 200/1/2 198/1/2 201/1/2
f 199/1/2 190/1/2 202/1/2
f 202/1/2 190/1/2 203/1/2
f 204/1/2 205/1/2 207/1/2
f 207/1/2 205/1/2 208/1/2
f 205/5/2 206/5/2 209/5/2
f 208/1/2 205/1/2 209/1/2
f 209/5/2 206/5/2 210/5/2
f 207/5/2 208/5/2 211/5/2
f 208/1/2 209/1/2 212/1/2
f 211/5/2 208/5/2 212/5/2
f 209/1/2 210/1/2 212/1/2
f 211/1/2 212/1/2 213/1/2
f 212/1/2 210/1/2 214/1/2
f 213/1/2 212/1/2 214/1/2
f 214/1/2 210/1/2 215/1/2
f 215/1/2 210/1/2 216/1/2
f 214/1/2 215/1/2 217/1/2
f 217/1/2 215/1/2 218/1/2
f 217/5/2 218/5/2 219/5/2
f 219/5/2 218/5/2 220/5/2
f 223/4/3 222/4/3 221/4/3
f 224/4/3 222/4/3 223/4/3
f 225/4/3 223/4/3 221/4/3
f 225/3/3 224/3/3 223/3/3
f 226/3/3 224/3/3 225/3/3
f 227/4/3 225/4/3 221/4/3
f 227/4/3 226/4/3 225/4/3
f 228/4/3 226/4/3 227/4/3
f 234/1/3 230/1/3 229/1/3
f 235/1/3 232/1/3 231/1/3
f 237/5/3 234/5/3 233/5/3
f 238/1/3 230/1/3 234/1/3
f 238/5/3 234/5/3 237/5/3
f 239/5/3 231/5/3 230/5/3
f 239/1/3 230/1/3 238/1/3
f 240/1/3 236/1/3 235/1/3
f 240/5/3 231/5/3 239/5/3
f 240/1/3 235/1/3 231/1/3
f 241/1/3 236/1/3 240/1/3
f 242/1/3 236/1/3 241/1/3
f 243/6/3 241/6/3 240/6/3
f 244/2/3 242/2/3 241/2/3
f 244/6/3 241/6/3 243/6/3
f 245/1/3 236/1/3 242/1/3
f 245/2/3 242/2/3 244/2/3
f 246/1/3 244/1/3 243/1/3
f 246/1/3 245/1/3 244/1/3
f 247/1/3 245/1/3 246/1/3
f 248/1/3 236/1/3 245/1/3
f 248/1/3 245/1/3 247/1/3
f 249/1/3 238/1/3 237/1/3
f 250/1/3 238/1/3 249/1/3
f 252/6/3 247/6/3 246/6/3
f 253/2/3 248/2/3 247/2/3
f 253/6/3 247/6/3 252/6/3
f 254/1/3 236/1/3 248/1/3
f 254/2/3 248/2/3 253/2/3
f 255/5/3 250/5/3 249/5/3
f 256/1/3 251/1/3 250/1/3
f 256/5/3 250/5/3 255/5/3
f 257/1/3 253/1/3 252/1/3
f 257/1/3 254/1/3 253/1/3
f 258/1/3 236/1/3 254/1/3
f 258/1/3 254/1/3 257/1/3
f 259/1/3 251/1/3 256/1/3
f 260/5/3 252/5/3 251/5/3
f 260/1/3 251/1/3 259/1/3
f 261/1/3 257/1/3 252/1/3
f 261/5/3 252/5/3 260/5/3
f 262/1/3 257/1/3 261/1/3
f 270/1/3 264/1/3 263/1/3
f 271/5/3 265/5/3 264/5/3
f 271/1/3 264/1/3 270/1/3
f 272/5/3 265/5/3 271/5/3
f 273/5/3 265/5/3 272/5/3
f 274/1/3 269/1/3 268/1/3
f 275/1/3 273/1/3 272/1/3
f 276/5/3 265/5/3 273/5/3
f 276/1/3 273/1/3 275/1/3
f 277/5/3 265/5/3 276/5/3
f 278/5/3 267/5/3 266/5/3
f 279/5/3 267/5/3 278/5/3
f 280/5/3 276/5/3 275/5/3
f 281/5/3 276/5/3 280/5/3
f 286/1/3 274/1/3 268/1/3
f 287/5/3 285/5/3 284/5/3
f 288/5/3 285/5/3 287/5/3
f 290/5/3 283/5/3 282/5/3
f 291/5/3 283/5/3 290/5/3
f 292/1/3 286/1/3 268/1/3
f 293/1/3 286/1/3 292/1/3
f 296/1/3 288/1/3 287/1/3
f 297/5/3 289/5/3 288/5/3
f 297/1/3 288/1/3 296/1/3
f 298/1/3 295/1/3 294/1/3
f 299/5/3 297/5/3 296/5/3
f 299/1/3 295/1/3 298/1/3
f 299/5/3 296/5/3 295/5/3
f 300/5/3 289/5/3 297/5/3
f 300/5/3 297/5/3 299/5/3
f 304/5/3 302/5/3 301/5/3
f 305/1/3 303/1/3 302/1/3
f 305/5/3 302/5/3 304/5/3
f 306/1/3 303/1/3 305/1/3
f 310/5/3 308/5/3 307/5/3
f 311/1/3 309/1/3 308/1/3
f 311/5/3 308/5/3 310/5/3
f 312/1/3 309/1/3 311/1/3
f 315/5/3 314/5/3 313/5/3
f 316/5/3 314/5/3 315/5/3
f 319/5/3 318/5/3 317/5/3
f 320/5/3 318/5/3 319/5/3
f 324/5/3 322/5/3 321/5/3
f 325/1/3 323/1/3 322/1/3
f 325/5/3 322/5/3 324/5/3
f 326/1/3 323/1/3 325/1/3
f 330/5/3 328/5/3 327/5/3
f 331/1/3 329/1/3 328/1/3
f 331/5/3 328/5/3 330/5/3
f 332/1/3 329/1/3 331/1/3
f 336/5/3 334/5/3 333/5/3
f 337/1/3 335/1/3 334/1/3
f 337/5/3 334/5/3 336/5/3
f 338/1/3 335/1/3 337/1/3
f 343/5/3 340/5/3 339/5/3
f 344/1/3 341/1/3 340/1/3
f 344/5/3 340/5/3 343/5/3
f 345/5/3 342/5/3 341/5/3
f 345/1/3 341/1/3 344/1/3
f 346/5/3 342/5/3 345/5/3
f 347/1/4 348/1/4 350/1/4
f 348/5/4 349/5/4 351/5/4
f 350/1/4 348/1/4 351/1/4
f 351/5/4 349/5/4 352/5/4
f 352/5/4 349/5/4 353/5/4
f 352/1/4 353/1/4 354/1/4
f 353/5/4 349/5/4 355/5/4
f 354/1/4 353/1/4 355/1/4
f 355/5/4 349/5/4 356/5/4
f 354/5/4 355/5/4 357/5/4
f 357/5/4 355/5/4 358/5/4
f 359/5/4 360/5/4 361/5/4
f 361/5/4 360/5/4 362/5/4
f 361/1/4 362/1/4 366/1/4
f 362/5/4 363/5/4 367/5/4
f 366/1/4 362/1/4 367/1/4
f 364/1/4 365/1/4 368/1/4
f 365/5/4 366/5/4 369/5/4
f 368/1/4 365/1/4 369/1/4
f 366/5/4 367/5/4 369/5/4
f 367/5/4 363/5/4 370/5/4
f 369/5/4 367/5/4 370/5/4
f 371/5/4 372/5/4 377/5/4
f 372/1/4 373/1/4 378/1/4
f 377/5/4 372/5/4 378/5/4
f 378/1/4 373/1/4 379/1/4
f 374/5/4 375/5/4 381/5/4
f 375/1/4 376/1/4 382/1/4
f 381/5/4 375/5/4 382/5/4
f 382/1/4 376/1/4 383/1/4
f 384/5/4 385/5/4 387/5/4
f 385/1/4 386/1/4 388/1/4
f 387/5/4 385/5/4 388/5/4
f 388/1/4 386/1/4 389/1/4
f 379/1/4 380/1/4 392/1/4
f 392/1/4 380/1/4 393/1/4
f 390/5/4 391/5/4 394/5/4
f 391/1/4 392/1/4 395/1/4
f 394/5/4 391/5/4 395/5/4
f 395/1/4 392/1/4 396/1/4
f 397/5/4 398/5/4 400/5/4
f 398/1/4 399/1/4 401/1/4
f 400/5/4 398/5/4 401/5/4
f 401/1/4 399/1/4 402/1/4
f 403/5/4 404/5/4 406/5/4
f 404/1/4 405/1/4 407/1/4
f 406/5/4 404/5/4 407/5/4
f 407/1/4 405/1/4 408/1/4
f 409/1/4 410/1/4 411/1/4
f 411/1/4 410/1/4 412/1/4
f 409/1/4 411/1/4 413/1/4
f 409/1/4 413/1/4 415/1/4
f 413/1/4 414/1/4 415/1/4
f 415/1/4 414/1/4 416/1/4
f 417/1/4 418/1/4 420/1/4
f 418/5/4 419/5/4 421/5/4
f 420/1/4 418/1/4 421/1/4
f 421/5/4 419/5/4 422/5/4
f 423/1/4 424/1/4 428/1/4
f 424/5/4 425/5/4 429/5/4
f 428/1/4 424/1/4 429/1/4
f 425/1/4 426/1/4 430/1/4
f 429/5/4 425/5/4 430/5/4
f 426/5/4 427/5/4 431/5/4
f 430/1/4 426/1/4 431/1/4
f 431/5/4 427/5/4 432/5/4
f 437/5/5 434/5/5 433/5/5
f 438/5/5 434/5/5 437/5/5
f 439/5/5 436/5/5 435/5/5
f 440/5/5 436/5/5 439/5/5
f 445/5/5 442/5/5 441/5/5
f 446/5/5 442/5/5 445/5/5
f 447/5/5 444/5/5 443/5/5
f 448/5/5 444/5/5 447/5/5
f 451/1/5 450/1/5 449/1/5
f 452/1/5 450/1/5 451/1/5
f 453/1/5 450/1/5 452/1/5
f 454/1/5 450/1/5 453/1/5
f 456/1/5 453/1/5 452/1/5
f 457/1/5 453/1/5 456/1/5
f 459/1/5 456/1/5 455/1/5
f 459/1/5 458/1/5 457/1/5
f 459/1/5 457/1/5 456/1/5
f 460/1/5 458/1/5 459/1/5
f 461/1/5 458/1/5 460/1/5
f 462/1/5 458/1/5 461/1/5
f 464/1/5 461/1/5 460/1/5
f 465/1/5 461/1/5 464/1/5
f 467/1/5 464/1/5 463/1/5
f 467/1/5 466/1/5 465/1/5
f 467/1/5 465/1/5 464/1/5
f 468/1/5 466/1/5 467/1/5
f 473/5/5 470/5/5 469/5/5
f 474/1/5 471/1/5 470/1/5
f 474/5/5 470/5/5 473/5/5
f 475/5/5 472/5/5 471/5/5
f 475/1/5 471/1/5 474/1/5
f 476/5/5 472/5/5 475/5/5
f 481/4/5 478/4/5 477/4/5
f 482/4/5 478/4/5 481/4/5
f 485/1/5 480/1/5 479/1/5
f 486/1/5 484/1/5 483/1/5
f 487/1/5 485/1/5 479/1/5
f 488/1/5 485/1/5 487/1/5
f 489/1/5 484/1/5 486/1/5
f 490/1/5 484/1/5 489/1/5
f 491/5/5 488/5/5 487/5/5
f 492/5/5 488/5/5 491/5/5
f 493/5/5 490/5/5 489/5/5
f 494/5/5 490/5/5 493/5/5
f 497/1/5 496/1/5 495/1/5
f 498/1/5 496/1/5 497/1/5
f 501/1/5 500/1/5 499/1/5
f 502/1/5 500/1/5 501/1/5
f 503/5/6 504/5/6 507/5/6
f 507/5/6 504/5/6 508/5/6
f 505/5/6 506/5/6 509/5/6
f 509/5/6 506/5/6 510/5/6
f 511/5/6 512/5/6 515/5/6
f 515/5/6 512/5/6 516/5/6
f 513/5/6 514/5/6 517/5/6
f 517/5/6 514/5/6 518/5/6
f 519/4/6 520/4/6 523/4/6
f 520/3/6 521/3/6 524/3/6
f 523/4/6 520/4/6 524/4/6
f 521/4/6 522/4/6 525/4/6
f 524/3/6 521/3/6 525/3/6
f 525/4/6 522/4/6 526/4/6
f 527/1/6 528/1/6 531/1/6
f 531/1/6 528/1/6 532/1/6
f 529/1/6 530/1/6 533/1/6
f 533/1/6 530/1/6 534/1/6
f 535/1/6 536/1/6 539/1/6
f 539/1/6 536/1/6 540/1/6
f 537/1/6 538/1/6 541/1/6
f 541/1/6 538/1/6 542/1/6
f 540/1/6 541/1/6 543/1/6
f 543/1/6 541/1/6 544/1/6
f 543/5/6 544/5/6 545/5/6
f 545/5/6 544/5/6 546/5/6
f 545/1/6 546/1/6 547/1/6
f 547/1/6 546/1/6 548/1/6
f 547/5/6 548/5/6 549/5/6
f 549/5/6 548/5/6 550/5/6
f 549/1/6 550/1/6 551/1/6
f 551/1/6 550/1/6 552/1/6
f 551/5/6 552/5/6 553/5/6
f 553/5/6 552/5/6 554/5/6
f 553/1/6 554/1/6 555/1/6
f 555/1/6 554/1/6 556/1/6
f 556/1/6 554/1/6 557/1/6
f 557/1/6 554/1/6 558/1/6
f 559/1/6 560/1/6 561/1/6
f 561/1/6 560/1/6 562/1/6
f 562/1/6 560/1/6 563/1/6
f 563/1/6 560/1/6 564/1/6
f 564/1/6 560/1/6 565/1/6
f 565/1/6 560/1/6 566/1/6
f 563/1/6 564/1/6 569/1/6
f 569/1/6 564/1/6 570/1/6
f 567/1/6 568/1/6 573/1/6
f 571/1/6 572/1/6 573/1/6
f 570/1/6 571/1/6 573/1/6
f 569/1/6 570/1/6 573/1/6
f 568/1/6 569/1/6 573/1/6
f 573/1/6 572/1/6 574/1/6
f 575/1/6 576/1/6 577/1/6
f 577/1/6 576/1/6 578/1/6
f 579/5/6 580/5/6 583/5/6
f 583/5/6 580/5/6 584/5/6
f 581/5/6 582/5/6 585/5/6
f 585/5/6 582/5/6 586/5/6
f 587/5/6 588/5/6 591/5/6
f 591/5/6 588/5/6 592/5/6
f 589/5/6 590/5/6 593/5/6
f 593/5/6 590/5/6 594/5/6
f 595/5/6 596/5/6 597/5/6
f 597/5/6 596/5/6 598/5/6
