# MagicaVoxel @ Ephtracy

# material
mtllib Mouse 1.mtl
usemtl palette

# normals
vn -1 0 0
vn 1 0 0
vn 0 0 1
vn 0 0 -1
vn 0 -1 0
vn 0 1 0

# texcoords
vt 0.974609 0.5
vt 0.978516 0.5
vt 0.986328 0.5

# verts
v -2 0 2
v -2 0 -1
v -2 1 2
v -2 1 1
v -2 2 2
v -2 2 1
v -2 2 -1
v -1 0 3
v -1 0 2
v -1 0 -1
v -1 0 -3
v -1 1 3
v -1 1 2
v -1 1 -1
v -1 1 -3
v 0 0 3
v 0 0 2
v 0 0 -1
v 0 0 -3
v 0 1 3
v 0 1 2
v 0 1 -1
v 0 1 -3
v 1 0 2
v 1 0 -1
v 1 1 2
v 1 1 1
v 1 2 2
v 1 2 1
v 1 2 -1
v -1 0 3
v -1 1 3
v 0 0 3
v 0 1 3
v -2 0 2
v -2 1 2
v -2 2 2
v -1 0 2
v -1 1 2
v -1 2 2
v 0 0 2
v 0 1 2
v 0 2 2
v 1 0 2
v 1 1 2
v 1 2 2
v -2 0 -1
v -2 2 -1
v -1 0 -1
v -1 1 -1
v 0 0 -1
v 0 1 -1
v 1 0 -1
v 1 2 -1
v -1 0 -3
v -1 1 -3
v 0 0 -3
v 0 1 -3
v -1 0 3
v 0 0 3
v -2 0 2
v -1 0 2
v 0 0 2
v 1 0 2
v -1 0 1
v 0 0 1
v -2 0 -1
v -1 0 -1
v 0 0 -1
v 1 0 -1
v -1 0 -3
v 0 0 -3
v -1 1 3
v 0 1 3
v -1 1 2
v 0 1 2
v -1 1 -1
v 0 1 -1
v -1 1 -3
v 0 1 -3
v -2 2 2
v -1 2 2
v 0 2 2
v 1 2 2
v -2 2 1
v -1 2 1
v 0 2 1
v 1 2 1
v -2 2 -1
v 1 2 -1

# faces
f 3/1/1 2/1/1 1/1/1
f 4/1/1 2/1/1 3/1/1
f 5/2/1 4/2/1 3/2/1
f 6/1/1 2/1/1 4/1/1
f 6/2/1 4/2/1 5/2/1
f 7/1/1 2/1/1 6/1/1
f 12/3/1 9/3/1 8/3/1
f 13/3/1 9/3/1 12/3/1
f 14/1/1 11/1/1 10/1/1
f 15/1/1 11/1/1 14/1/1
f 16/3/2 17/3/2 20/3/2
f 20/3/2 17/3/2 21/3/2
f 18/1/2 19/1/2 22/1/2
f 22/1/2 19/1/2 23/1/2
f 24/1/2 25/1/2 26/1/2
f 26/1/2 25/1/2 27/1/2
f 26/2/2 27/2/2 28/2/2
f 27/1/2 25/1/2 29/1/2
f 28/2/2 27/2/2 29/2/2
f 29/1/2 25/1/2 30/1/2
f 33/3/3 32/3/3 31/3/3
f 34/3/3 32/3/3 33/3/3
f 38/1/3 36/1/3 35/1/3
f 39/2/3 37/2/3 36/2/3
f 39/1/3 36/1/3 38/1/3
f 40/2/3 37/2/3 39/2/3
f 42/1/3 40/1/3 39/1/3
f 43/1/3 40/1/3 42/1/3
f 44/1/3 42/1/3 41/1/3
f 45/2/3 43/2/3 42/2/3
f 45/1/3 42/1/3 44/1/3
f 46/2/3 43/2/3 45/2/3
f 47/1/4 48/1/4 49/1/4
f 49/1/4 48/1/4 50/1/4
f 50/1/4 48/1/4 52/1/4
f 51/1/4 52/1/4 53/1/4
f 52/1/4 48/1/4 54/1/4
f 53/1/4 52/1/4 54/1/4
f 55/1/4 56/1/4 57/1/4
f 57/1/4 56/1/4 58/1/4
f 62/3/5 60/3/5 59/3/5
f 63/3/5 60/3/5 62/3/5
f 65/1/5 62/1/5 61/1/5
f 65/3/5 63/3/5 62/3/5
f 66/1/5 64/1/5 63/1/5
f 66/3/5 63/3/5 65/3/5
f 67/1/5 65/1/5 61/1/5
f 67/1/5 66/1/5 65/1/5
f 68/1/5 66/1/5 67/1/5
f 69/1/5 64/1/5 66/1/5
f 69/1/5 66/1/5 68/1/5
f 70/1/5 64/1/5 69/1/5
f 71/1/5 69/1/5 68/1/5
f 72/1/5 69/1/5 71/1/5
f 73/3/6 74/3/6 75/3/6
f 75/3/6 74/3/6 76/3/6
f 77/1/6 78/1/6 79/1/6
f 79/1/6 78/1/6 80/1/6
f 81/2/6 82/2/6 85/2/6
f 82/1/6 83/1/6 86/1/6
f 85/2/6 82/2/6 86/2/6
f 83/2/6 84/2/6 87/2/6
f 86/1/6 83/1/6 87/1/6
f 87/2/6 84/2/6 88/2/6
f 85/1/6 86/1/6 89/1/6
f 86/1/6 87/1/6 89/1/6
f 87/1/6 88/1/6 89/1/6
f 89/1/6 88/1/6 90/1/6
