# MagicaVoxel @ Ephtracy

# material
mtllib Cat1-01.mtl
usemtl palette

# normals
vn -1 0 0
vn 1 0 0
vn 0 0 1
vn 0 0 -1
vn 0 -1 0
vn 0 1 0

# texcoords
vt 0.970703 0.5
vt 0.974609 0.5
vt 0.982422 0.5
vt 0.986328 0.5
vt 0.990234 0.5
vt 0.994141 0.5

# verts
v -4 5 6
v -4 5 4
v -4 5 3
v -4 6 6
v -4 6 5
v -4 6 4
v -4 6 3
v -4 7 6
v -4 7 5
v -4 8 6
v -4 8 5
v -4 8 4
v -4 8 3
v -4 9 5
v -4 9 4
v -4 12 5
v -4 12 4
v -3 0 5
v -3 0 3
v -3 0 -1
v -3 0 -3
v -3 1 5
v -3 1 4
v -3 1 -1
v -3 1 -2
v -3 2 4
v -3 2 3
v -3 2 -2
v -3 2 -3
v -3 3 5
v -3 3 4
v -3 3 3
v -3 3 -2
v -3 3 -3
v -3 3 -4
v -3 4 6
v -3 4 5
v -3 5 6
v -3 5 5
v -3 5 4
v -3 5 3
v -3 5 2
v -3 5 1
v -3 5 -0
v -3 5 -1
v -3 5 -2
v -3 5 -3
v -3 6 3
v -3 8 6
v -3 8 5
v -3 8 4
v -3 8 3
v -3 8 2
v -3 8 1
v -3 8 -0
v -3 8 -1
v -3 8 -2
v -3 8 -3
v -3 8 -4
v -3 9 5
v -3 9 4
v -3 10 6
v -3 10 5
v -3 10 4
v -3 10 3
v -2 5 7
v -2 5 6
v -2 6 6
v -2 7 7
v -2 7 6
v -1 7 -4
v -1 7 -5
v -1 8 -4
v -1 8 -5
v -1 9 -4
v -1 9 -5
v -1 10 -5
v -1 10 -6
v -1 11 -4
v -1 11 -5
v -1 11 -6
v -1 12 -5
v -1 12 -6
v -1 15 -5
v -1 15 -6
v 1 0 5
v 1 0 3
v 1 0 -1
v 1 0 -3
v 1 1 5
v 1 1 4
v 1 1 -1
v 1 1 -2
v 1 2 4
v 1 2 3
v 1 2 -2
v 1 2 -3
v 1 3 4
v 1 3 3
v 1 3 -2
v 1 3 -3
v 1 10 5
v 1 10 4
v 1 11 5
v 1 11 4
v 2 11 5
v 2 11 4
v 2 12 5
v 2 12 4
v -2 11 5
v -2 11 4
v -2 12 5
v -2 12 4
v -1 0 5
v -1 0 3
v -1 0 -1
v -1 0 -3
v -1 1 5
v -1 1 4
v -1 1 -1
v -1 1 -2
v -1 2 4
v -1 2 3
v -1 2 -2
v -1 2 -3
v -1 3 4
v -1 3 3
v -1 3 -2
v -1 3 -3
v -1 10 5
v -1 10 4
v -1 11 5
v -1 11 4
v 1 7 -4
v 1 7 -5
v 1 8 -4
v 1 8 -5
v 1 9 -4
v 1 9 -5
v 1 10 -5
v 1 10 -6
v 1 11 -4
v 1 11 -5
v 1 11 -6
v 1 12 -5
v 1 12 -6
v 1 15 -5
v 1 15 -6
v 2 5 7
v 2 5 6
v 2 6 6
v 2 7 7
v 2 7 6
v 3 0 5
v 3 0 3
v 3 0 -1
v 3 0 -3
v 3 1 5
v 3 1 4
v 3 1 -1
v 3 1 -2
v 3 2 4
v 3 2 3
v 3 2 -2
v 3 2 -3
v 3 3 5
v 3 3 4
v 3 3 3
v 3 3 -2
v 3 3 -3
v 3 3 -4
v 3 4 6
v 3 4 5
v 3 5 6
v 3 5 5
v 3 5 4
v 3 5 3
v 3 5 2
v 3 5 1
v 3 5 -0
v 3 5 -1
v 3 5 -2
v 3 5 -3
v 3 6 3
v 3 8 6
v 3 8 5
v 3 8 4
v 3 8 3
v 3 8 2
v 3 8 1
v 3 8 -0
v 3 8 -1
v 3 8 -2
v 3 8 -3
v 3 8 -4
v 3 9 5
v 3 9 4
v 3 10 6
v 3 10 5
v 3 10 4
v 3 10 3
v 4 5 6
v 4 5 4
v 4 5 3
v 4 6 6
v 4 6 5
v 4 6 4
v 4 6 3
v 4 7 6
v 4 7 5
v 4 8 6
v 4 8 5
v 4 8 4
v 4 8 3
v 4 9 5
v 4 9 4
v 4 12 5
v 4 12 4
v -2 5 7
v -2 7 7
v -1 6 7
v -1 7 7
v 1 6 7
v 1 7 7
v 2 5 7
v 2 7 7
v -4 5 6
v -4 6 6
v -4 7 6
v -4 8 6
v -3 4 6
v -3 5 6
v -3 8 6
v -3 10 6
v -2 4 6
v -2 5 6
v -2 6 6
v -2 7 6
v -2 8 6
v -2 9 6
v -1 7 6
v -1 8 6
v -1 9 6
v 1 7 6
v 1 8 6
v 1 9 6
v 2 4 6
v 2 5 6
v 2 6 6
v 2 7 6
v 2 8 6
v 2 9 6
v 3 4 6
v 3 5 6
v 3 8 6
v 3 10 6
v 4 5 6
v 4 6 6
v 4 7 6
v 4 8 6
v -4 8 5
v -4 9 5
v -4 12 5
v -3 0 5
v -3 1 5
v -3 3 5
v -3 4 5
v -3 8 5
v -3 9 5
v -3 10 5
v -3 11 5
v -2 4 5
v -2 10 5
v -2 11 5
v -2 12 5
v -1 0 5
v -1 1 5
v -1 10 5
v -1 11 5
v 1 0 5
v 1 1 5
v 1 10 5
v 1 11 5
v 2 4 5
v 2 10 5
v 2 11 5
v 2 12 5
v 3 0 5
v 3 1 5
v 3 3 5
v 3 4 5
v 3 8 5
v 3 9 5
v 3 10 5
v 3 11 5
v 4 8 5
v 4 9 5
v 4 12 5
v -3 1 4
v -3 2 4
v -3 3 4
v -1 1 4
v -1 2 4
v -1 3 4
v 1 1 4
v 1 2 4
v 1 3 4
v 3 1 4
v 3 2 4
v 3 3 4
v -3 0 -1
v -3 1 -1
v -1 0 -1
v -1 1 -1
v 1 0 -1
v 1 1 -1
v 3 0 -1
v 3 1 -1
v -3 1 -2
v -3 2 -2
v -3 3 -2
v -1 1 -2
v -1 2 -2
v -1 3 -2
v 1 1 -2
v 1 2 -2
v 1 3 -2
v 3 1 -2
v 3 2 -2
v 3 3 -2
v -1 8 -4
v -1 9 -4
v -1 11 -4
v 1 8 -4
v 1 9 -4
v 1 11 -4
v -1 11 -5
v -1 12 -5
v -1 15 -5
v 1 11 -5
v 1 12 -5
v 1 15 -5
v -4 8 4
v -4 9 4
v -4 12 4
v -3 8 4
v -3 9 4
v -3 10 4
v -3 11 4
v -2 10 4
v -2 11 4
v -2 12 4
v -1 10 4
v -1 11 4
v 1 10 4
v 1 11 4
v 2 10 4
v 2 11 4
v 2 12 4
v 3 8 4
v 3 9 4
v 3 10 4
v 3 11 4
v 4 8 4
v 4 9 4
v 4 12 4
v -4 5 3
v -4 6 3
v -4 8 3
v -3 0 3
v -3 2 3
v -3 3 3
v -3 5 3
v -3 6 3
v -3 8 3
v -3 10 3
v -1 0 3
v -1 2 3
v -1 3 3
v 1 0 3
v 1 2 3
v 1 3 3
v 3 0 3
v 3 2 3
v 3 3 3
v 3 5 3
v 3 6 3
v 3 8 3
v 3 10 3
v 4 5 3
v 4 6 3
v 4 8 3
v -3 0 -3
v -3 2 -3
v -3 3 -3
v -1 0 -3
v -1 2 -3
v -1 3 -3
v 1 0 -3
v 1 2 -3
v 1 3 -3
v 3 0 -3
v 3 2 -3
v 3 3 -3
v -3 3 -4
v -3 8 -4
v -1 7 -4
v -1 8 -4
v 1 7 -4
v 1 8 -4
v 3 3 -4
v 3 8 -4
v -1 7 -5
v -1 8 -5
v -1 9 -5
v -1 10 -5
v 1 7 -5
v 1 8 -5
v 1 9 -5
v 1 10 -5
v -1 10 -6
v -1 11 -6
v -1 12 -6
v -1 15 -6
v 1 10 -6
v 1 11 -6
v 1 12 -6
v 1 15 -6
v -3 0 5
v -1 0 5
v 1 0 5
v 3 0 5
v -3 0 3
v -1 0 3
v 1 0 3
v 3 0 3
v -3 0 -1
v -1 0 -1
v 1 0 -1
v 3 0 -1
v -3 0 -3
v -1 0 -3
v 1 0 -3
v 3 0 -3
v -3 3 5
v 3 3 5
v -3 3 4
v -1 3 4
v 1 3 4
v 3 3 4
v -3 3 3
v -1 3 3
v 1 3 3
v 3 3 3
v -3 3 -2
v -1 3 -2
v 1 3 -2
v 3 3 -2
v -3 3 -3
v -1 3 -3
v 1 3 -3
v 3 3 -3
v -3 3 -4
v 3 3 -4
v -3 4 6
v -2 4 6
v 2 4 6
v 3 4 6
v -3 4 5
v -2 4 5
v 2 4 5
v 3 4 5
v -2 5 7
v 2 5 7
v -4 5 6
v -3 5 6
v -2 5 6
v 2 5 6
v 3 5 6
v 4 5 6
v -3 5 5
v 3 5 5
v -4 5 4
v -3 5 4
v 3 5 4
v 4 5 4
v -4 5 3
v -3 5 3
v 3 5 3
v 4 5 3
v -1 7 -4
v 1 7 -4
v -1 7 -5
v 1 7 -5
v -1 10 -5
v 1 10 -5
v -1 10 -6
v 1 10 -6
v -3 1 5
v -1 1 5
v 1 1 5
v 3 1 5
v -3 1 4
v -1 1 4
v 1 1 4
v 3 1 4
v -3 1 -1
v -1 1 -1
v 1 1 -1
v 3 1 -1
v -3 1 -2
v -1 1 -2
v 1 1 -2
v 3 1 -2
v -2 7 7
v -1 7 7
v 1 7 7
v 2 7 7
v -2 7 6
v -1 7 6
v 1 7 6
v 2 7 6
v -4 8 6
v -3 8 6
v 3 8 6
v 4 8 6
v -4 8 5
v -3 8 5
v 3 8 5
v 4 8 5
v -4 8 4
v -3 8 4
v 3 8 4
v 4 8 4
v -4 8 3
v -3 8 3
v 3 8 3
v 4 8 3
v -3 8 2
v 3 8 2
v -3 8 1
v 3 8 1
v -3 8 -0
v 3 8 -0
v -3 8 -1
v 3 8 -1
v -3 8 -2
v 3 8 -2
v -3 8 -3
v 3 8 -3
v -3 8 -4
v -1 8 -4
v 1 8 -4
v 3 8 -4
v -3 10 6
v 3 10 6
v -3 10 5
v -2 10 5
v -1 10 5
v 1 10 5
v 2 10 5
v 3 10 5
v -3 10 4
v -2 10 4
v -1 10 4
v 1 10 4
v 2 10 4
v 3 10 4
v -3 10 3
v 3 10 3
v -2 11 5
v -1 11 5
v 1 11 5
v 2 11 5
v -2 11 4
v -1 11 4
v 1 11 4
v 2 11 4
v -1 11 -4
v 1 11 -4
v -1 11 -5
v 1 11 -5
v -4 12 5
v -2 12 5
v 2 12 5
v 4 12 5
v -4 12 4
v -2 12 4
v 2 12 4
v 4 12 4
v -1 15 -5
v 1 15 -5
v -1 15 -6
v 1 15 -6

# faces
f 4/1/1 2/1/1 1/1/1
f 5/1/1 2/1/1 4/1/1
f 6/5/1 3/5/1 2/5/1
f 6/1/1 2/1/1 5/1/1
f 7/5/1 3/5/1 6/5/1
f 8/5/1 5/5/1 4/5/1
f 9/1/1 6/1/1 5/1/1
f 9/5/1 5/5/1 8/5/1
f 9/1/1 7/1/1 6/1/1
f 10/1/1 9/1/1 8/1/1
f 11/1/1 7/1/1 9/1/1
f 11/1/1 9/1/1 10/1/1
f 12/1/1 7/1/1 11/1/1
f 13/1/1 7/1/1 12/1/1
f 14/1/1 12/1/1 11/1/1
f 15/1/1 12/1/1 14/1/1
f 16/5/1 15/5/1 14/5/1
f 17/5/1 15/5/1 16/5/1
f 22/5/1 19/5/1 18/5/1
f 23/5/1 19/5/1 22/5/1
f 24/5/1 21/5/1 20/5/1
f 25/5/1 21/5/1 24/5/1
f 26/5/1 19/5/1 23/5/1
f 27/5/1 19/5/1 26/5/1
f 28/5/1 21/5/1 25/5/1
f 29/5/1 21/5/1 28/5/1
f 31/1/1 27/1/1 26/1/1
f 32/1/1 27/1/1 31/1/1
f 33/1/1 29/1/1 28/1/1
f 34/1/1 29/1/1 33/1/1
f 37/1/1 34/1/1 33/1/1
f 37/1/1 35/1/1 34/1/1
f 37/1/1 33/1/1 32/1/1
f 37/1/1 32/1/1 31/1/1
f 37/1/1 31/1/1 30/1/1
f 38/5/1 37/5/1 36/5/1
f 39/1/1 35/1/1 37/1/1
f 39/5/1 37/5/1 38/5/1
f 40/1/1 35/1/1 39/1/1
f 41/1/1 35/1/1 40/1/1
f 42/1/1 35/1/1 41/1/1
f 43/1/1 35/1/1 42/1/1
f 44/1/1 35/1/1 43/1/1
f 45/1/1 35/1/1 44/1/1
f 46/1/1 35/1/1 45/1/1
f 47/1/1 35/1/1 46/1/1
f 48/1/1 42/1/1 41/1/1
f 52/1/1 42/1/1 48/1/1
f 53/5/1 43/5/1 42/5/1
f 53/1/1 42/1/1 52/1/1
f 54/1/1 44/1/1 43/1/1
f 54/5/1 43/5/1 53/5/1
f 55/5/1 45/5/1 44/5/1
f 55/1/1 44/1/1 54/1/1
f 56/1/1 46/1/1 45/1/1
f 56/5/1 45/5/1 55/5/1
f 57/5/1 47/5/1 46/5/1
f 57/1/1 46/1/1 56/1/1
f 58/1/1 35/1/1 47/1/1
f 58/5/1 47/5/1 57/5/1
f 59/1/1 35/1/1 58/1/1
f 60/1/1 50/1/1 49/1/1
f 61/1/1 52/1/1 51/1/1
f 62/1/1 60/1/1 49/1/1
f 63/1/1 60/1/1 62/1/1
f 64/1/1 52/1/1 61/1/1
f 65/1/1 52/1/1 64/1/1
f 68/4/1 67/4/1 66/4/1
f 69/4/1 68/4/1 66/4/1
f 70/4/1 68/4/1 69/4/1
f 73/1/1 72/1/1 71/1/1
f 74/1/1 72/1/1 73/1/1
f 75/5/1 74/5/1 73/5/1
f 76/5/1 74/5/1 75/5/1
f 77/1/1 76/1/1 75/1/1
f 79/1/1 77/1/1 75/1/1
f 80/5/1 78/5/1 77/5/1
f 80/1/1 77/1/1 79/1/1
f 81/5/1 78/5/1 80/5/1
f 82/1/1 81/1/1 80/1/1
f 83/1/1 81/1/1 82/1/1
f 84/5/1 83/5/1 82/5/1
f 85/5/1 83/5/1 84/5/1
f 90/5/1 87/5/1 86/5/1
f 91/5/1 87/5/1 90/5/1
f 92/5/1 89/5/1 88/5/1
f 93/5/1 89/5/1 92/5/1
f 94/5/1 87/5/1 91/5/1
f 95/5/1 87/5/1 94/5/1
f 96/5/1 89/5/1 93/5/1
f 97/5/1 89/5/1 96/5/1
f 98/1/1 95/1/1 94/1/1
f 99/1/1 95/1/1 98/1/1
f 100/1/1 97/1/1 96/1/1
f 101/1/1 97/1/1 100/1/1
f 104/5/1 103/5/1 102/5/1
f 105/5/1 103/5/1 104/5/1
f 108/5/1 107/5/1 106/5/1
f 109/5/1 107/5/1 108/5/1
f 110/5/2 111/5/2 112/5/2
f 112/5/2 111/5/2 113/5/2
f 114/5/2 115/5/2 118/5/2
f 118/5/2 115/5/2 119/5/2
f 116/5/2 117/5/2 120/5/2
f 120/5/2 117/5/2 121/5/2
f 119/5/2 115/5/2 122/5/2
f 122/5/2 115/5/2 123/5/2
f 121/5/2 117/5/2 124/5/2
f 124/5/2 117/5/2 125/5/2
f 122/1/2 123/1/2 126/1/2
f 126/1/2 123/1/2 127/1/2
f 124/1/2 125/1/2 128/1/2
f 128/1/2 125/1/2 129/1/2
f 130/5/2 131/5/2 132/5/2
f 132/5/2 131/5/2 133/5/2
f 134/1/2 135/1/2 136/1/2
f 136/1/2 135/1/2 137/1/2
f 136/5/2 137/5/2 138/5/2
f 138/5/2 137/5/2 139/5/2
f 138/1/2 139/1/2 140/1/2
f 138/1/2 140/1/2 142/1/2
f 140/5/2 141/5/2 143/5/2
f 142/1/2 140/1/2 143/1/2
f 143/5/2 141/5/2 144/5/2
f 143/1/2 144/1/2 145/1/2
f 145/1/2 144/1/2 146/1/2
f 145/5/2 146/5/2 147/5/2
f 147/5/2 146/5/2 148/5/2
f 149/4/2 150/4/2 151/4/2
f 149/4/2 151/4/2 152/4/2
f 152/4/2 151/4/2 153/4/2
f 154/5/2 155/5/2 158/5/2
f 158/5/2 155/5/2 159/5/2
f 156/5/2 157/5/2 160/5/2
f 160/5/2 157/5/2 161/5/2
f 159/5/2 155/5/2 162/5/2
f 162/5/2 155/5/2 163/5/2
f 161/5/2 157/5/2 164/5/2
f 164/5/2 157/5/2 165/5/2
f 162/1/2 163/1/2 167/1/2
f 167/1/2 163/1/2 168/1/2
f 164/1/2 165/1/2 169/1/2
f 169/1/2 165/1/2 170/1/2
f 169/1/2 170/1/2 173/1/2
f 170/1/2 171/1/2 173/1/2
f 168/1/2 169/1/2 173/1/2
f 167/1/2 168/1/2 173/1/2
f 166/1/2 167/1/2 173/1/2
f 172/5/2 173/5/2 174/5/2
f 173/1/2 171/1/2 175/1/2
f 174/5/2 173/5/2 175/5/2
f 175/1/2 171/1/2 176/1/2
f 176/1/2 171/1/2 177/1/2
f 177/1/2 171/1/2 178/1/2
f 178/1/2 171/1/2 179/1/2
f 179/1/2 171/1/2 180/1/2
f 180/1/2 171/1/2 181/1/2
f 181/1/2 171/1/2 182/1/2
f 182/1/2 171/1/2 183/1/2
f 177/1/2 178/1/2 184/1/2
f 184/1/2 178/1/2 188/1/2
f 178/5/2 179/5/2 189/5/2
f 188/1/2 178/1/2 189/1/2
f 179/1/2 180/1/2 190/1/2
f 189/5/2 179/5/2 190/5/2
f 180/5/2 181/5/2 191/5/2
f 190/1/2 180/1/2 191/1/2
f 181/1/2 182/1/2 192/1/2
f 191/5/2 181/5/2 192/5/2
f 182/5/2 183/5/2 193/5/2
f 192/1/2 182/1/2 193/1/2
f 183/1/2 171/1/2 194/1/2
f 193/5/2 183/5/2 194/5/2
f 194/1/2 171/1/2 195/1/2
f 185/1/2 186/1/2 196/1/2
f 187/1/2 188/1/2 197/1/2
f 185/1/2 196/1/2 198/1/2
f 198/1/2 196/1/2 199/1/2
f 197/1/2 188/1/2 200/1/2
f 200/1/2 188/1/2 201/1/2
f 202/1/2 203/1/2 205/1/2
f 205/1/2 203/1/2 206/1/2
f 203/5/2 204/5/2 207/5/2
f 206/1/2 203/1/2 207/1/2
f 207/5/2 204/5/2 208/5/2
f 205/5/2 206/5/2 209/5/2
f 206/1/2 207/1/2 210/1/2
f 209/5/2 206/5/2 210/5/2
f 207/1/2 208/1/2 210/1/2
f 209/1/2 210/1/2 211/1/2
f 210/1/2 208/1/2 212/1/2
f 211/1/2 210/1/2 212/1/2
f 212/1/2 208/1/2 213/1/2
f 213/1/2 208/1/2 214/1/2
f 212/1/2 213/1/2 215/1/2
f 215/1/2 213/1/2 216/1/2
f 215/5/2 216/5/2 217/5/2
f 217/5/2 216/5/2 218/5/2
f 221/4/3 220/4/3 219/4/3
f 222/4/3 220/4/3 221/4/3
f 223/4/3 221/4/3 219/4/3
f 223/3/3 222/3/3 221/3/3
f 224/3/3 222/3/3 223/3/3
f 225/4/3 223/4/3 219/4/3
f 225/4/3 224/4/3 223/4/3
f 226/4/3 224/4/3 225/4/3
f 232/1/3 228/1/3 227/1/3
f 233/1/3 230/1/3 229/1/3
f 235/5/3 232/5/3 231/5/3
f 236/1/3 228/1/3 232/1/3
f 236/5/3 232/5/3 235/5/3
f 237/5/3 229/5/3 228/5/3
f 237/1/3 228/1/3 236/1/3
f 238/1/3 234/1/3 233/1/3
f 238/5/3 229/5/3 237/5/3
f 238/1/3 233/1/3 229/1/3
f 239/1/3 234/1/3 238/1/3
f 240/1/3 234/1/3 239/1/3
f 241/6/3 239/6/3 238/6/3
f 242/2/3 240/2/3 239/2/3
f 242/6/3 239/6/3 241/6/3
f 243/1/3 234/1/3 240/1/3
f 243/2/3 240/2/3 242/2/3
f 244/1/3 242/1/3 241/1/3
f 244/1/3 243/1/3 242/1/3
f 245/1/3 243/1/3 244/1/3
f 246/1/3 234/1/3 243/1/3
f 246/1/3 243/1/3 245/1/3
f 247/1/3 236/1/3 235/1/3
f 248/1/3 236/1/3 247/1/3
f 250/6/3 245/6/3 244/6/3
f 251/2/3 246/2/3 245/2/3
f 251/6/3 245/6/3 250/6/3
f 252/1/3 234/1/3 246/1/3
f 252/2/3 246/2/3 251/2/3
f 253/5/3 248/5/3 247/5/3
f 254/1/3 249/1/3 248/1/3
f 254/5/3 248/5/3 253/5/3
f 255/1/3 251/1/3 250/1/3
f 255/1/3 252/1/3 251/1/3
f 256/1/3 234/1/3 252/1/3
f 256/1/3 252/1/3 255/1/3
f 257/1/3 249/1/3 254/1/3
f 258/5/3 250/5/3 249/5/3
f 258/1/3 249/1/3 257/1/3
f 259/1/3 255/1/3 250/1/3
f 259/5/3 250/5/3 258/5/3
f 260/1/3 255/1/3 259/1/3
f 268/1/3 262/1/3 261/1/3
f 269/5/3 263/5/3 262/5/3
f 269/1/3 262/1/3 268/1/3
f 270/5/3 263/5/3 269/5/3
f 271/5/3 263/5/3 270/5/3
f 272/1/3 267/1/3 266/1/3
f 273/1/3 271/1/3 270/1/3
f 274/5/3 263/5/3 271/5/3
f 274/1/3 271/1/3 273/1/3
f 275/5/3 263/5/3 274/5/3
f 276/5/3 265/5/3 264/5/3
f 277/5/3 265/5/3 276/5/3
f 278/5/3 274/5/3 273/5/3
f 279/5/3 274/5/3 278/5/3
f 284/1/3 272/1/3 266/1/3
f 285/5/3 283/5/3 282/5/3
f 286/5/3 283/5/3 285/5/3
f 288/5/3 281/5/3 280/5/3
f 289/5/3 281/5/3 288/5/3
f 290/1/3 284/1/3 266/1/3
f 291/1/3 284/1/3 290/1/3
f 294/1/3 286/1/3 285/1/3
f 295/5/3 287/5/3 286/5/3
f 295/1/3 286/1/3 294/1/3
f 296/1/3 293/1/3 292/1/3
f 297/5/3 295/5/3 294/5/3
f 297/1/3 293/1/3 296/1/3
f 297/5/3 294/5/3 293/5/3
f 298/5/3 287/5/3 295/5/3
f 298/5/3 295/5/3 297/5/3
f 302/5/3 300/5/3 299/5/3
f 303/1/3 301/1/3 300/1/3
f 303/5/3 300/5/3 302/5/3
f 304/1/3 301/1/3 303/1/3
f 308/5/3 306/5/3 305/5/3
f 309/1/3 307/1/3 306/1/3
f 309/5/3 306/5/3 308/5/3
f 310/1/3 307/1/3 309/1/3
f 313/5/3 312/5/3 311/5/3
f 314/5/3 312/5/3 313/5/3
f 317/5/3 316/5/3 315/5/3
f 318/5/3 316/5/3 317/5/3
f 322/5/3 320/5/3 319/5/3
f 323/1/3 321/1/3 320/1/3
f 323/5/3 320/5/3 322/5/3
f 324/1/3 321/1/3 323/1/3
f 328/5/3 326/5/3 325/5/3
f 329/1/3 327/1/3 326/1/3
f 329/5/3 326/5/3 328/5/3
f 330/1/3 327/1/3 329/1/3
f 334/5/3 332/5/3 331/5/3
f 335/1/3 333/1/3 332/1/3
f 335/5/3 332/5/3 334/5/3
f 336/1/3 333/1/3 335/1/3
f 340/1/3 338/1/3 337/1/3
f 341/5/3 339/5/3 338/5/3
f 341/1/3 338/1/3 340/1/3
f 342/5/3 339/5/3 341/5/3
f 343/1/4 344/1/4 346/1/4
f 344/5/4 345/5/4 347/5/4
f 346/1/4 344/1/4 347/1/4
f 347/5/4 345/5/4 348/5/4
f 348/5/4 345/5/4 349/5/4
f 348/1/4 349/1/4 350/1/4
f 349/5/4 345/5/4 351/5/4
f 350/1/4 349/1/4 351/1/4
f 351/5/4 345/5/4 352/5/4
f 350/5/4 351/5/4 353/5/4
f 353/5/4 351/5/4 354/5/4
f 355/5/4 356/5/4 357/5/4
f 357/5/4 356/5/4 358/5/4
f 357/1/4 358/1/4 362/1/4
f 358/5/4 359/5/4 363/5/4
f 362/1/4 358/1/4 363/1/4
f 360/1/4 361/1/4 364/1/4
f 361/5/4 362/5/4 365/5/4
f 364/1/4 361/1/4 365/1/4
f 362/5/4 363/5/4 365/5/4
f 363/5/4 359/5/4 366/5/4
f 365/5/4 363/5/4 366/5/4
f 367/5/4 368/5/4 373/5/4
f 368/1/4 369/1/4 374/1/4
f 373/5/4 368/5/4 374/5/4
f 374/1/4 369/1/4 375/1/4
f 370/5/4 371/5/4 377/5/4
f 371/1/4 372/1/4 378/1/4
f 377/5/4 371/5/4 378/5/4
f 378/1/4 372/1/4 379/1/4
f 380/5/4 381/5/4 383/5/4
f 381/1/4 382/1/4 384/1/4
f 383/5/4 381/5/4 384/5/4
f 384/1/4 382/1/4 385/1/4
f 375/1/4 376/1/4 388/1/4
f 388/1/4 376/1/4 389/1/4
f 386/5/4 387/5/4 390/5/4
f 387/1/4 388/1/4 391/1/4
f 390/5/4 387/5/4 391/5/4
f 391/1/4 388/1/4 392/1/4
f 393/5/4 394/5/4 396/5/4
f 394/1/4 395/1/4 397/1/4
f 396/5/4 394/5/4 397/5/4
f 397/1/4 395/1/4 398/1/4
f 399/5/4 400/5/4 402/5/4
f 400/1/4 401/1/4 403/1/4
f 402/5/4 400/5/4 403/5/4
f 403/1/4 401/1/4 404/1/4
f 405/1/4 406/1/4 407/1/4
f 407/1/4 406/1/4 408/1/4
f 405/1/4 407/1/4 409/1/4
f 405/1/4 409/1/4 411/1/4
f 409/1/4 410/1/4 411/1/4
f 411/1/4 410/1/4 412/1/4
f 413/1/4 414/1/4 417/1/4
f 414/5/4 415/5/4 418/5/4
f 417/1/4 414/1/4 418/1/4
f 415/1/4 416/1/4 419/1/4
f 418/5/4 415/5/4 419/5/4
f 419/1/4 416/1/4 420/1/4
f 421/5/4 422/5/4 425/5/4
f 422/1/4 423/1/4 426/1/4
f 425/5/4 422/5/4 426/5/4
f 423/5/4 424/5/4 427/5/4
f 426/1/4 423/1/4 427/1/4
f 427/5/4 424/5/4 428/5/4
f 433/5/5 430/5/5 429/5/5
f 434/5/5 430/5/5 433/5/5
f 435/5/5 432/5/5 431/5/5
f 436/5/5 432/5/5 435/5/5
f 441/5/5 438/5/5 437/5/5
f 442/5/5 438/5/5 441/5/5
f 443/5/5 440/5/5 439/5/5
f 444/5/5 440/5/5 443/5/5
f 447/1/5 446/1/5 445/1/5
f 448/1/5 446/1/5 447/1/5
f 449/1/5 446/1/5 448/1/5
f 450/1/5 446/1/5 449/1/5
f 452/1/5 449/1/5 448/1/5
f 453/1/5 449/1/5 452/1/5
f 455/1/5 452/1/5 451/1/5
f 455/1/5 454/1/5 453/1/5
f 455/1/5 453/1/5 452/1/5
f 456/1/5 454/1/5 455/1/5
f 457/1/5 454/1/5 456/1/5
f 458/1/5 454/1/5 457/1/5
f 460/1/5 457/1/5 456/1/5
f 461/1/5 457/1/5 460/1/5
f 463/1/5 460/1/5 459/1/5
f 463/1/5 462/1/5 461/1/5
f 463/1/5 461/1/5 460/1/5
f 464/1/5 462/1/5 463/1/5
f 469/5/5 466/5/5 465/5/5
f 470/1/5 467/1/5 466/1/5
f 470/5/5 466/5/5 469/5/5
f 471/5/5 468/5/5 467/5/5
f 471/1/5 467/1/5 470/1/5
f 472/5/5 468/5/5 471/5/5
f 477/4/5 474/4/5 473/4/5
f 478/4/5 474/4/5 477/4/5
f 481/1/5 476/1/5 475/1/5
f 482/1/5 480/1/5 479/1/5
f 483/1/5 481/1/5 475/1/5
f 484/1/5 481/1/5 483/1/5
f 485/1/5 480/1/5 482/1/5
f 486/1/5 480/1/5 485/1/5
f 487/5/5 484/5/5 483/5/5
f 488/5/5 484/5/5 487/5/5
f 489/5/5 486/5/5 485/5/5
f 490/5/5 486/5/5 489/5/5
f 493/1/5 492/1/5 491/1/5
f 494/1/5 492/1/5 493/1/5
f 497/5/5 496/5/5 495/5/5
f 498/5/5 496/5/5 497/5/5
f 499/5/6 500/5/6 503/5/6
f 503/5/6 500/5/6 504/5/6
f 501/5/6 502/5/6 505/5/6
f 505/5/6 502/5/6 506/5/6
f 507/5/6 508/5/6 511/5/6
f 511/5/6 508/5/6 512/5/6
f 509/5/6 510/5/6 513/5/6
f 513/5/6 510/5/6 514/5/6
f 515/4/6 516/4/6 519/4/6
f 516/3/6 517/3/6 520/3/6
f 519/4/6 516/4/6 520/4/6
f 517/4/6 518/4/6 521/4/6
f 520/3/6 517/3/6 521/3/6
f 521/4/6 518/4/6 522/4/6
f 523/1/6 524/1/6 527/1/6
f 527/1/6 524/1/6 528/1/6
f 525/1/6 526/1/6 529/1/6
f 529/1/6 526/1/6 530/1/6
f 531/1/6 532/1/6 535/1/6
f 535/1/6 532/1/6 536/1/6
f 533/1/6 534/1/6 537/1/6
f 537/1/6 534/1/6 538/1/6
f 536/1/6 537/1/6 539/1/6
f 539/1/6 537/1/6 540/1/6
f 539/5/6 540/5/6 541/5/6
f 541/5/6 540/5/6 542/5/6
f 541/1/6 542/1/6 543/1/6
f 543/1/6 542/1/6 544/1/6
f 543/5/6 544/5/6 545/5/6
f 545/5/6 544/5/6 546/5/6
f 545/1/6 546/1/6 547/1/6
f 547/1/6 546/1/6 548/1/6
f 547/5/6 548/5/6 549/5/6
f 549/5/6 548/5/6 550/5/6
f 549/1/6 550/1/6 551/1/6
f 551/1/6 550/1/6 552/1/6
f 552/1/6 550/1/6 553/1/6
f 553/1/6 550/1/6 554/1/6
f 555/1/6 556/1/6 557/1/6
f 557/1/6 556/1/6 558/1/6
f 558/1/6 556/1/6 559/1/6
f 559/1/6 556/1/6 560/1/6
f 560/1/6 556/1/6 561/1/6
f 561/1/6 556/1/6 562/1/6
f 559/1/6 560/1/6 565/1/6
f 565/1/6 560/1/6 566/1/6
f 563/1/6 564/1/6 569/1/6
f 567/1/6 568/1/6 569/1/6
f 566/1/6 567/1/6 569/1/6
f 565/1/6 566/1/6 569/1/6
f 564/1/6 565/1/6 569/1/6
f 569/1/6 568/1/6 570/1/6
f 571/5/6 572/5/6 575/5/6
f 575/5/6 572/5/6 576/5/6
f 573/5/6 574/5/6 577/5/6
f 577/5/6 574/5/6 578/5/6
f 579/1/6 580/1/6 581/1/6
f 581/1/6 580/1/6 582/1/6
f 583/5/6 584/5/6 587/5/6
f 587/5/6 584/5/6 588/5/6
f 585/5/6 586/5/6 589/5/6
f 589/5/6 586/5/6 590/5/6
f 591/5/6 592/5/6 593/5/6
f 593/5/6 592/5/6 594/5/6
